<svg xmlns="http://www.w3.org/2000/svg" version="1.1" xmlns:xlink="http://www.w3.org/1999/xlink" xmlns:svgjs="http://svgjs.dev/svgjs" width="1440" height="560" preserveAspectRatio="none" viewBox="0 0 1440 560"><g mask="url(&quot;#SvgjsMask1005&quot;)" fill="none"><rect width="1440" height="560" x="0" y="0" fill="rgba(35, 35, 35, 1)"></rect><path d="M0,484.128C87.009,461.786,156.098,406.509,238.978,371.857C344.525,327.727,488.235,346.751,553.423,252.74C617.803,159.893,564.704,32.906,551.842,-79.343C538.583,-195.052,545.826,-319.381,477.092,-413.402C406.261,-510.292,289.407,-559.674,174.755,-595.162C58.84,-631.041,-73.21,-672.467,-181.216,-617.165C-287.871,-562.554,-287.073,-407.282,-366.825,-317.855C-448.4,-226.384,-604.594,-207.678,-648.46,-93.235C-693.278,23.691,-649.652,159.176,-592.348,270.516C-536.493,379.04,-448.254,477.434,-333.438,518.839C-226.144,557.531,-110.473,512.495,0,484.128" fill="#202020"></path><path d="M1440 1193.7910000000002C1556.62 1190.635 1640.343 1087.272 1735.31 1019.511 1825.341 955.2719999999999 1929.121 904.696 1981.607 807.343 2035.7440000000001 706.928 2065.423 583.361 2028.682 475.36 1993.266 371.255 1861.75 339.925 1793.313 253.853 1720.285 162.00599999999997 1726.913-1.6580000000000155 1616.915-42.51599999999996 1508.509-82.78300000000002 1404.771 30.21799999999996 1295.85 69.07100000000003 1194.541 105.20800000000003 1059.4279999999999 88.89299999999997 999.0219999999999 177.89 937.95 267.868 1000.706 388.80899999999997 1005.077 497.468 1008.55 583.802 1001.913 666.843 1022.072 750.862 1046.378 852.164 1062.741 960.0070000000001 1134.2359999999999 1035.779 1214.598 1120.949 1322.945 1196.9589999999998 1440 1193.7910000000002" fill="#272727"></path></g><defs><mask id="SvgjsMask1005"><rect width="1440" height="560" fill="#ffffff"></rect></mask></defs></svg>