<svg xmlns="http://www.w3.org/2000/svg" version="1.1" xmlns:xlink="http://www.w3.org/1999/xlink" xmlns:svgjs="http://svgjs.dev/svgjs" width="1440" height="560" preserveAspectRatio="none" viewBox="0 0 1440 560"><g mask="url(&quot;#SvgjsMask1003&quot;)" fill="none"><rect width="1440" height="560" x="0" y="0" fill="rgba(239, 245, 251, 1)"></rect><path d="M0,339.48C63.183,330.689,116.815,298.369,175.13,272.507C245.27,241.401,333.929,235.639,377.13,172.229C421.355,107.315,426.626,16.377,399.964,-57.506C374.602,-127.786,298.868,-161.971,239.947,-207.915C192.257,-245.101,146.217,-283.321,88.253,-300.563C30.144,-317.848,-30.544,-318.571,-89.855,-306.019C-152.8,-292.698,-223.88,-278.778,-261.457,-226.553C-298.65,-174.861,-264.352,-101.872,-280.975,-40.398C-301.05,33.842,-382.907,92.662,-368.188,168.146C-353.613,242.891,-278.568,293.898,-209.525,326.027C-144.762,356.164,-70.75,349.324,0,339.48" fill="#a1c4e7"></path><path d="M1440 921.271C1506.406 918.396 1549.421 853.12 1606.636 819.2909999999999 1666.724 783.764 1751.314 778.719 1784.745 717.44 1818.274 655.982 1793.061 579.386 1774.319 511.932 1757.3519999999999 450.865 1720.817 400.348 1682.595 349.78999999999996 1641.703 295.7 1608.689 226.178 1543.689 206.868 1478.663 187.55 1414.957 234.106 1349.194 250.74400000000003 1280.289 268.177 1199.495 257.991 1147.996 306.977 1095.566 356.848 1071.0140000000001 436.099 1078.686 508.051 1085.882 575.545 1153.7649999999999 616.388 1187.279 675.414 1216.88 727.549 1220.854 792.327 1263.826 834.1320000000001 1311.757 880.761 1373.193 924.163 1440 921.271" fill="#ffffff"></path></g><defs><mask id="SvgjsMask1003"><rect width="1440" height="560" fill="#ffffff"></rect></mask></defs></svg>